<?xml version="1.0" encoding="utf-8"?>
<!-- Generator: Adobe Illustrator 24.3.0, SVG Export Plug-In . SVG Version: 6.00 Build 0)  -->
<svg version="1.1" id="图层_1" xmlns="http://www.w3.org/2000/svg" xmlns:xlink="http://www.w3.org/1999/xlink" x="0px" y="0px"
	 viewBox="0 0 64 64" style="enable-background:new 0 0 64 64;" xml:space="preserve">
<style type="text/css">
	.st0{fill:#515151;}
</style>
<path class="st0" d="M31.7,10.2c-0.3,0-0.5,0-0.8,0V4.1c0-1.7-1.9-2.7-3.3-1.7l-22,14.9c-1,0.6-1.2,2-0.6,2.9
	c0.1,0.2,0.3,0.4,0.6,0.6l22,14.9c1.4,0.9,3.3-0.1,3.3-1.7v-6.2c10.6-0.1,19.4,7.3,19.8,16.8c0.3,7.3-4.4,13.8-11.4,16.8
	c-0.1,0.1-0.3,0.2-0.2,0.4c0,0.2,0.2,0.2,0.4,0.2c11.2-3.3,19.4-12.9,19.7-24.5C59.6,22.8,47.3,10.6,31.7,10.2z"/>
</svg>
