<?xml version="1.0" encoding="utf-8"?>
<!-- Generator: Adobe Illustrator 24.3.0, SVG Export Plug-In . SVG Version: 6.00 Build 0)  -->
<svg version="1.1" id="图层_1" xmlns="http://www.w3.org/2000/svg" xmlns:xlink="http://www.w3.org/1999/xlink" x="0px" y="0px"
	 viewBox="0 0 64 64" style="enable-background:new 0 0 64 64;" xml:space="preserve">
<style type="text/css">
	.st0{fill:#515151;}
</style>
<g>
	<path class="st0" d="M50,36.4c-1.6,0-3,0.3-4.4,0.8L16.7,4.2C16,3.4,14.8,3.3,14,4c-0.8,0.7-0.9,1.9-0.2,2.7l28.5,32.6
		c-2.6,2.2-4.3,5.5-4.3,9.2c0,6.6,5.4,12,12,12s12-5.4,12-12S56.6,36.4,50,36.4L50,36.4z M50,56.7c-4.5,0-8.2-3.7-8.2-8.2
		s3.7-8.2,8.2-8.2s8.2,3.7,8.2,8.2S54.5,56.7,50,56.7z"/>
	<path class="st0" d="M50,4c-0.8-0.7-2-0.6-2.7,0.2L18.4,37.3c-1.4-0.5-2.9-0.8-4.4-0.8c-6.6,0-12,5.4-12,12s5.4,12,12,12
		s12-5.4,12-12c0-3.7-1.7-7-4.3-9.2L50.2,6.7C50.9,5.9,50.8,4.7,50,4L50,4z M14,56.7c-4.5,0-8.2-3.7-8.2-8.2s3.7-8.2,8.2-8.2
		s8.2,3.7,8.2,8.2S18.6,56.7,14,56.7z"/>
</g>
</svg>
